<?xml version="1.0" encoding="UTF-8" standalone="no"?>
<!-- Created with Inkscape (http://www.inkscape.org/) -->

<svg
   width="148.41817mm"
   height="199.11021mm"
   viewBox="0 0 148.41817 199.11021"
   version="1.1"
   id="svg135"
   inkscape:version="1.2 (dc2aedaf03, 2022-05-15)"
   sodipodi:docname="drawing.svg"
   inkscape:export-filename="drawing.png"
   inkscape:export-xdpi="96"
   inkscape:export-ydpi="96"
   xmlns:inkscape="http://www.inkscape.org/namespaces/inkscape"
   xmlns:sodipodi="http://sodipodi.sourceforge.net/DTD/sodipodi-0.dtd"
   xmlns="http://www.w3.org/2000/svg"
   xmlns:svg="http://www.w3.org/2000/svg">
  <sodipodi:namedview
     id="namedview137"
     pagecolor="#ffffff"
     bordercolor="#000000"
     borderopacity="0.25"
     inkscape:showpageshadow="2"
     inkscape:pageopacity="0.0"
     inkscape:pagecheckerboard="0"
     inkscape:deskcolor="#d1d1d1"
     inkscape:document-units="mm"
     showgrid="false"
     showguides="false"
     inkscape:zoom="0.72515432"
     inkscape:cx="144.10726"
     inkscape:cy="421.28964"
     inkscape:window-width="1920"
     inkscape:window-height="1001"
     inkscape:window-x="-9"
     inkscape:window-y="-9"
     inkscape:window-maximized="1"
     inkscape:current-layer="layer1" />
  <defs
     id="defs132">
    <inkscape:path-effect
       effect="mirror_symmetry"
       start_point="104.99979,44.878398"
       end_point="104.99979,248.47639"
       center_point="104.99979,146.67739"
       id="path-effect2041"
       is_visible="true"
       lpeversion="1.2"
       lpesatellites=""
       mode="free"
       discard_orig_path="false"
       fuse_paths="false"
       oposite_fuse="false"
       split_items="false"
       split_open="false"
       link_styles="false" />
    <inkscape:path-effect
       effect="fillet_chamfer"
       id="path-effect2028"
       is_visible="true"
       lpeversion="1"
       nodesatellites_param="F,0,0,1,0,2.9104167,0,1 @ F,0,0,1,0,9.6368644,0,1 @ F,0,0,1,0,2.9104167,0,1 @ F,0,0,1,0,2.9104167,0,1 @ F,0,0,1,0,2.9104167,0,1"
       unit="px"
       method="auto"
       mode="F"
       radius="11"
       chamfer_steps="1"
       flexible="false"
       use_knot_distance="true"
       apply_no_radius="true"
       apply_with_radius="true"
       only_selected="false"
       hide_knots="false" />
    <inkscape:path-effect
       effect="mirror_symmetry"
       start_point="104.99979,44.878398"
       end_point="104.99979,248.47642"
       center_point="104.99979,146.67741"
       id="path-effect1892"
       is_visible="true"
       lpeversion="1.2"
       lpesatellites=""
       mode="free"
       discard_orig_path="false"
       fuse_paths="false"
       oposite_fuse="false"
       split_items="false"
       split_open="false"
       link_styles="false" />
    <inkscape:path-effect
       effect="mirror_symmetry"
       start_point="104.99979,44.878398"
       end_point="104.99979,248.47642"
       center_point="104.99979,146.67741"
       id="path-effect1878"
       is_visible="true"
       lpeversion="1.2"
       lpesatellites=""
       mode="free"
       discard_orig_path="false"
       fuse_paths="false"
       oposite_fuse="false"
       split_items="false"
       split_open="false"
       link_styles="false" />
    <inkscape:path-effect
       effect="bspline"
       id="path-effect1875"
       is_visible="true"
       lpeversion="1"
       weight="33.333333"
       steps="2"
       helper_size="0"
       apply_no_weight="true"
       apply_with_weight="true"
       only_selected="false" />
    <inkscape:path-effect
       effect="mirror_symmetry"
       start_point="104.99979,44.878399"
       end_point="104.99979,248.47642"
       center_point="104.99979,146.67741"
       id="path-effect1871"
       is_visible="true"
       lpeversion="1.2"
       lpesatellites=""
       mode="free"
       discard_orig_path="false"
       fuse_paths="false"
       oposite_fuse="false"
       split_items="false"
       split_open="false"
       link_styles="false" />
    <inkscape:path-effect
       effect="mirror_symmetry"
       start_point="104.99979,44.878398"
       end_point="104.99979,248.47642"
       center_point="104.99979,146.67741"
       id="path-effect1690"
       is_visible="true"
       lpeversion="1.2"
       lpesatellites=""
       mode="free"
       discard_orig_path="false"
       fuse_paths="false"
       oposite_fuse="false"
       split_items="false"
       split_open="false"
       link_styles="false" />
    <inkscape:path-effect
       effect="mirror_symmetry"
       start_point="105,44.878398"
       end_point="105,248.47642"
       center_point="105,146.67741"
       id="path-effect1196"
       is_visible="true"
       lpeversion="1.2"
       lpesatellites=""
       mode="free"
       discard_orig_path="false"
       fuse_paths="false"
       oposite_fuse="false"
       split_items="false"
       split_open="false"
       link_styles="false" />
    <inkscape:path-effect
       effect="mirror_symmetry"
       start_point="105,44.148651"
       end_point="105,248.47379"
       center_point="105,146.31122"
       id="path-effect1130"
       is_visible="false"
       lpeversion="1.2"
       lpesatellites=""
       mode="free"
       discard_orig_path="false"
       fuse_paths="false"
       oposite_fuse="false"
       split_items="false"
       split_open="false"
       link_styles="false" />
  </defs>
  <g
     inkscape:label="Layer 1"
     inkscape:groupmode="layer"
     id="layer1"
     transform="translate(-30.790919,-48.944893)">
    <path
       id="rect308"
       style="font-variation-settings:'wght' 600;fill:#000000;fill-opacity:1;stroke-width:0.264999;stroke-linecap:round"
       class="UnoptimicedTransforms"
       d="M 73.25651,44.878398 C 57.033183,45.251344 51.347875,77.412624 49.409904,99.711226 l -1.601969,0.10542 c 0,0 -3.597234,-4.131903 -5.92212,-4.243152 -2.939654,-0.140662 -6.289475,1.768193 -7.850683,4.631246 -1.420404,2.60478 -2.483549,7.64898 -0.181384,9.217 3.695064,2.5168 11.170377,-7.38352 11.170377,-7.38352 l 4.208012,-0.18087 c -0.64261,8.16717 -0.785998,14.74582 -0.785998,17.45371 v 97.05403 c 0,14.09728 3.257566,28.00838 18.292423,31.35261 0.599422,-2.01737 1.393652,-4.53623 2.368848,-7.22954 2.226761,-6.14988 5.276471,-13.03911 8.929687,-16.11891 3.880904,-3.27174 10.623984,-4.33406 16.411918,-4.65036 2.893966,-0.15813 5.554375,-0.12004 7.490495,-0.0413 0.49042,0.0199 1.95381,0.0426 3.06028,0.0651 v -6.62957 c -16.956558,0 -28.206668,0.2319 -32.391819,-3.31608 -3.952086,-3.35035 -7.299876,-11.49019 -3.648873,-15.32413 3.250971,-3.41381 17.133048,-2.91868 36.040692,-2.91868 v -6.42235 c -3.31128,0.0167 -9.329318,0.0335 -15.1815,-0.10438 -3.898645,-0.0918 -7.89843,-0.25278 -11.138855,-0.52762 -1.620211,-0.13742 -3.049767,-0.30243 -4.190958,-0.50591 -1.141192,-0.20347 -1.973005,-0.40923 -2.525428,-0.7829 -0.38671,-0.26158 -0.53991,-0.65396 -0.716752,-1.17564 -0.176843,-0.52169 -0.331338,-1.18853 -0.474906,-1.99626 -0.287134,-1.61546 -0.524453,-3.78939 -0.714685,-6.35568 -0.380465,-5.13259 -0.570242,-11.82999 -0.558623,-18.64848 0.01162,-6.8185 0.224424,-13.75554 0.656291,-19.36316 0.215934,-2.8038 0.487369,-5.27422 0.816488,-7.24038 0.329119,-1.96616 0.686634,-3.40637 1.208712,-4.27106 1.490136,-2.46804 4.324351,-4.11516 7.681701,-5.25239 3.357351,-1.13722 7.265934,-1.76268 10.990544,-2.09962 3.724611,-0.3367 10.365451,-0.38371 12.980601,-0.34571 0.42996,0.006 0.79111,0.0175 1.16737,0.0274 v -8.58139 c -18.424899,0 -32.526281,7.71497 -35.310504,4.10517 -5.713999,-7.96168 -8.258403,-25.044333 -5.108215,-28.824593 2.425255,-2.910326 20.129875,-2.919201 40.418719,-2.919201 V 62.574475 44.878398 Z m -0.76016,5.454447 c 0.600163,0.0071 0.983314,0.277776 1.028361,0.842843 0.144151,1.808204 -3.173738,6.630065 -6.130892,11.920719 -2.957155,5.290655 -5.553484,11.049822 -6.995955,11.85354 -1.442476,0.803718 -1.731198,-3.348227 -0.577226,-8.036202 1.153973,-4.687975 3.750793,-9.911702 6.852295,-13.12633 2.132283,-2.210061 4.503055,-3.470232 5.823417,-3.45457 z M 57.509668,108.23784 c 0.01229,-0.005 0.04082,0.0157 0.05633,0.017 2.021494,0.17632 3.791736,10.51273 5.105115,15.04766 1.376616,4.75335 1.2346,43.43833 0.815454,49.34634 -0.469624,6.61971 -5.346853,27.02816 -6.932393,23.28334 -0.835203,-1.97266 -1.744262,-83.90454 0,-86.87739 0.321879,-0.5486 0.984545,-0.27329 0.949296,-0.80202 -5.75e-4,-0.009 0.0021,-0.0134 0.0062,-0.015 z m 43.711022,9.21597 c -3.120051,0.0129 -7.522444,0.10147 -10.279471,0.35089 -3.676034,0.33254 -7.518461,0.95389 -10.757483,2.05103 -3.239023,1.09714 -5.847433,2.67063 -7.146334,4.82193 -0.355338,0.58854 -0.759282,1.99884 -1.080554,3.91811 -0.321271,1.91927 -0.590123,4.36917 -0.804602,7.15408 -0.428958,5.56984 -0.642634,12.4885 -0.654224,19.2872 -0.01159,6.7987 0.179017,13.47938 0.556556,18.57251 0.188769,2.54657 0.424652,4.6977 0.701249,6.25388 0.138299,0.77809 0.287815,1.40942 0.437699,1.85157 0.149885,0.44216 0.346213,0.67846 0.330213,0.66766 0.253856,0.17172 1.049315,0.4328 2.140437,0.62735 1.091124,0.19454 2.497586,0.35815 4.099492,0.49402 3.20381,0.27173 7.192557,0.43189 11.079944,0.52349 5.953419,0.14018 12.117498,0.11762 15.156178,0.0997 V 117.4967 c -0.40845,-0.0116 -0.67346,-0.0261 -1.19476,-0.0336 -0.64667,-0.009 -1.54432,-0.0136 -2.58434,-0.009 z m -45.799783,96.41944 c 0.338288,-0.0395 0.660399,0.15505 0.782898,0.47284 l 3.137276,8.14524 c 0.696641,1.8082 1.263419,3.66378 1.69602,5.55263 l 2.617412,11.43341 c 0.264755,0.98833 -0.821163,1.78771 -1.686202,1.24127 -4.998216,-3.41553 -8.057954,-9.01855 -8.229472,-15.06988 -0.05487,-1.93629 0.04796,-3.87384 0.307474,-5.79345 l 0.72192,-5.34076 c 0.04563,-0.33771 0.314216,-0.60162 0.652674,-0.6413 z m 43.129667,6.63577 c -1.252201,4.2e-4 -2.622432,0.03 -4.050399,0.108 -5.711866,0.31214 -12.32914,1.44327 -15.883268,4.43953 -3.326442,2.8043 -6.454651,9.63802 -8.663554,15.73857 -0.991199,2.7375 -1.757473,5.18176 -2.324923,7.10499 2.13045,0.4028 4.483731,0.60447 7.08794,0.5731 l 30.28342,-0.36536 v -27.47636 c -1.16048,-0.0187 -2.64758,-0.0367 -3.1073,-0.0553 -0.9558,-0.0387 -2.089717,-0.0676 -3.341916,-0.0672 z M 136.74307,44.878398 c 16.22333,0.372946 21.90863,32.534226 23.84661,54.832828 l 1.60196,0.10542 c 0,0 3.59724,-4.131903 5.92212,-4.243152 2.93966,-0.140662 6.28948,1.768193 7.85069,4.631246 1.4204,2.60478 2.48355,7.64898 0.18138,9.217 -3.69506,2.5168 -11.17038,-7.38352 -11.17038,-7.38352 l -4.20801,-0.18087 c 0.64261,8.16717 0.786,14.74582 0.786,17.45371 v 97.05403 c 0,14.09728 -3.25757,28.00838 -18.29242,31.35261 -0.59942,-2.01737 -1.39365,-4.53623 -2.36885,-7.22954 -2.22676,-6.14988 -5.27647,-13.03911 -8.92969,-16.11891 -3.8809,-3.27174 -10.62398,-4.33406 -16.41191,-4.65036 -2.89397,-0.15813 -5.55438,-0.12004 -7.4905,-0.0413 -0.49042,0.0199 -1.95381,0.0426 -3.06028,0.0651 v -6.62957 c 16.95656,0 28.20667,0.2319 32.39182,-3.31608 3.95208,-3.35035 7.29987,-11.49019 3.64887,-15.32413 -3.25097,-3.41381 -17.13305,-2.91868 -36.04069,-2.91868 v -6.42235 c 3.31128,0.0167 9.32932,0.0335 15.1815,-0.10438 3.89864,-0.0918 7.89843,-0.25278 11.13885,-0.52762 1.62022,-0.13742 3.04977,-0.30243 4.19096,-0.50591 1.14119,-0.20347 1.97301,-0.40923 2.52543,-0.7829 0.38671,-0.26158 0.53991,-0.65396 0.71675,-1.17564 0.17685,-0.52169 0.33134,-1.18853 0.47491,-1.99626 0.28713,-1.61546 0.52445,-3.78939 0.71468,-6.35568 0.38047,-5.13259 0.57025,-11.82999 0.55863,-18.64848 -0.0116,-6.8185 -0.22443,-13.75554 -0.65629,-19.36316 -0.21594,-2.8038 -0.48737,-5.27422 -0.81649,-7.24038 -0.32912,-1.96616 -0.68664,-3.40637 -1.20871,-4.27106 -1.49014,-2.46804 -4.32436,-4.11516 -7.68171,-5.25239 -3.35735,-1.13722 -7.26593,-1.76268 -10.99054,-2.09962 -3.72461,-0.3367 -10.36545,-0.38371 -12.9806,-0.34571 -0.42996,0.006 -0.79111,0.0175 -1.16737,0.0274 v -8.58139 c 18.4249,0 32.52628,7.71497 35.3105,4.10517 5.714,-7.96168 8.25841,-25.044333 5.10822,-28.824593 -2.42526,-2.910326 -20.12988,-2.919201 -40.41872,-2.919201 V 62.574475 44.878398 Z m 0.76016,5.454447 c -0.60016,0.0071 -0.98331,0.277776 -1.02836,0.842843 -0.14415,1.808204 3.17374,6.630065 6.13089,11.920719 2.95716,5.290655 5.55348,11.049822 6.99596,11.85354 1.44247,0.803718 1.73119,-3.348227 0.57722,-8.036202 -1.15397,-4.687975 -3.75079,-9.911702 -6.85229,-13.12633 -2.13229,-2.210061 -4.50306,-3.470232 -5.82342,-3.45457 z m 14.98668,57.904995 c -0.0123,-0.005 -0.0408,0.0157 -0.0563,0.017 -2.02149,0.17632 -3.79173,10.51273 -5.10511,15.04766 -1.37662,4.75335 -1.2346,43.43833 -0.81546,49.34634 0.46963,6.61971 5.34686,27.02816 6.9324,23.28334 0.8352,-1.97266 1.74426,-83.90454 0,-86.87739 -0.32188,-0.5486 -0.98455,-0.27329 -0.9493,-0.80202 5.8e-4,-0.009 -0.002,-0.0134 -0.006,-0.015 z m -43.71102,9.21597 c 3.12005,0.0129 7.52244,0.10147 10.27947,0.35089 3.67604,0.33254 7.51846,0.95389 10.75748,2.05103 3.23903,1.09714 5.84744,2.67063 7.14634,4.82193 0.35534,0.58854 0.75928,1.99884 1.08055,3.91811 0.32127,1.91927 0.59013,4.36917 0.8046,7.15408 0.42896,5.56984 0.64264,12.4885 0.65423,19.2872 0.0116,6.7987 -0.17902,13.47938 -0.55656,18.57251 -0.18877,2.54657 -0.42465,4.6977 -0.70125,6.25388 -0.1383,0.77809 -0.28781,1.40942 -0.4377,1.85157 -0.14988,0.44216 -0.34621,0.67846 -0.33021,0.66766 -0.25385,0.17172 -1.04931,0.4328 -2.14044,0.62735 -1.09112,0.19454 -2.49758,0.35815 -4.09949,0.49402 -3.20381,0.27173 -7.19255,0.43189 -11.07994,0.52349 -5.95342,0.14018 -12.1175,0.11762 -15.15618,0.0997 V 117.4967 c 0.40845,-0.0116 0.67346,-0.0261 1.19476,-0.0336 0.64667,-0.009 1.54432,-0.0136 2.58434,-0.009 z m 45.79978,96.41944 c -0.33828,-0.0395 -0.6604,0.15505 -0.78289,0.47284 l -3.13728,8.14524 c -0.69664,1.8082 -1.26342,3.66378 -1.69602,5.55263 l -2.61741,11.43341 c -0.26476,0.98833 0.82116,1.78771 1.6862,1.24127 4.99821,-3.41553 8.05795,-9.01855 8.22947,-15.06988 0.0549,-1.93629 -0.0479,-3.87384 -0.30747,-5.79345 l -0.72192,-5.34076 c -0.0456,-0.33771 -0.31422,-0.60162 -0.65268,-0.6413 z m -43.12966,6.63577 c 1.2522,4.2e-4 2.62243,0.03 4.0504,0.108 5.71186,0.31214 12.32914,1.44327 15.88326,4.43953 3.32645,2.8043 6.45465,9.63802 8.66356,15.73857 0.9912,2.7375 1.75747,5.18176 2.32492,7.10499 -2.13045,0.4028 -4.48373,0.60447 -7.08794,0.5731 l -30.28342,-0.36536 v -27.47636 c 1.16048,-0.0187 2.64758,-0.0367 3.1073,-0.0553 0.9558,-0.0387 2.08972,-0.0676 3.34192,-0.0672 z"
       inkscape:path-effect="#path-effect2041"
       inkscape:original-d="M 73.25651,44.878398 C 57.033183,45.251344 51.347875,77.412624 49.409904,99.711226 l -1.601969,0.10542 c 0,0 -3.597234,-4.131903 -5.92212,-4.243152 -2.939654,-0.140662 -6.289475,1.768193 -7.850683,4.631246 -1.420404,2.60478 -2.483549,7.64898 -0.181384,9.217 3.695064,2.5168 11.170377,-7.38352 11.170377,-7.38352 l 4.208012,-0.18087 c -0.64261,8.16717 -0.785998,14.74582 -0.785998,17.45371 v 97.05403 c 0,14.09728 3.257566,28.00838 18.292423,31.35261 0.599422,-2.01737 1.393652,-4.53623 2.368848,-7.22954 2.226761,-6.14988 5.276471,-13.03911 8.929687,-16.11891 3.880904,-3.27174 10.623984,-4.33406 16.411918,-4.65036 2.893966,-0.15813 5.554375,-0.12004 7.490495,-0.0413 0.49042,0.0199 1.95381,0.0426 3.06028,0.0651 v -6.62957 c -16.956558,0 -28.206668,0.2319 -32.391819,-3.31608 -3.952086,-3.35035 -7.299876,-11.49019 -3.648873,-15.32413 3.250971,-3.41381 17.133048,-2.91868 36.040692,-2.91868 v -6.42235 c -3.31128,0.0167 -9.329318,0.0335 -15.1815,-0.10438 -3.898645,-0.0918 -7.89843,-0.25278 -11.138855,-0.52762 -1.620211,-0.13742 -3.049767,-0.30243 -4.190958,-0.50591 -1.141192,-0.20347 -1.973005,-0.40923 -2.525428,-0.7829 -0.38671,-0.26158 -0.53991,-0.65396 -0.716752,-1.17564 -0.176843,-0.52169 -0.331338,-1.18853 -0.474906,-1.99626 -0.287134,-1.61546 -0.524453,-3.78939 -0.714685,-6.35568 -0.380465,-5.13259 -0.570242,-11.82999 -0.558623,-18.64848 0.01162,-6.8185 0.224424,-13.75554 0.656291,-19.36316 0.215934,-2.8038 0.487369,-5.27422 0.816488,-7.24038 0.329119,-1.96616 0.686634,-3.40637 1.208712,-4.27106 1.490136,-2.46804 4.324351,-4.11516 7.681701,-5.25239 3.357351,-1.13722 7.265934,-1.76268 10.990544,-2.09962 3.724611,-0.3367 10.365451,-0.38371 12.980601,-0.34571 0.42996,0.006 0.79111,0.0175 1.16737,0.0274 v -8.58139 c -18.424899,0 -32.526281,7.71497 -35.310504,4.10517 -5.713999,-7.96168 -8.258403,-25.044333 -5.108215,-28.824593 2.425255,-2.910326 20.129875,-2.919201 40.418719,-2.919201 V 62.574475 44.878398 Z m -0.76016,5.454447 c 0.600163,0.0071 0.983314,0.277776 1.028361,0.842843 0.144151,1.808204 -3.173738,6.630065 -6.130892,11.920719 -2.957155,5.290655 -5.553484,11.049822 -6.995955,11.85354 -1.442476,0.803718 -1.731198,-3.348227 -0.577226,-8.036202 1.153973,-4.687975 3.750793,-9.911702 6.852295,-13.12633 2.132283,-2.210061 4.503055,-3.470232 5.823417,-3.45457 z M 57.509668,108.23784 c 0.01229,-0.005 0.04082,0.0157 0.05633,0.017 2.021494,0.17632 3.791736,10.51273 5.105115,15.04766 1.376616,4.75335 1.2346,43.43833 0.815454,49.34634 -0.469624,6.61971 -5.346853,27.02816 -6.932393,23.28334 -0.835203,-1.97266 -1.744262,-83.90454 0,-86.87739 0.321879,-0.5486 0.984545,-0.27329 0.949296,-0.80202 -5.75e-4,-0.009 0.0021,-0.0134 0.0062,-0.015 z m 43.711022,9.21597 c -3.120051,0.0129 -7.522444,0.10147 -10.279471,0.35089 -3.676034,0.33254 -7.518461,0.95389 -10.757483,2.05103 -3.239023,1.09714 -5.847433,2.67063 -7.146334,4.82193 -0.355338,0.58854 -0.759282,1.99884 -1.080554,3.91811 -0.321271,1.91927 -0.590123,4.36917 -0.804602,7.15408 -0.428958,5.56984 -0.642634,12.4885 -0.654224,19.2872 -0.01159,6.7987 0.179017,13.47938 0.556556,18.57251 0.188769,2.54657 0.424652,4.6977 0.701249,6.25388 0.138299,0.77809 0.287815,1.40942 0.437699,1.85157 0.149885,0.44216 0.346213,0.67846 0.330213,0.66766 0.253856,0.17172 1.049315,0.4328 2.140437,0.62735 1.091124,0.19454 2.497586,0.35815 4.099492,0.49402 3.20381,0.27173 7.192557,0.43189 11.079944,0.52349 5.953419,0.14018 12.117498,0.11762 15.156178,0.0997 V 117.4967 c -0.40845,-0.0116 -0.67346,-0.0261 -1.19476,-0.0336 -0.64667,-0.009 -1.54432,-0.0136 -2.58434,-0.009 z m -45.799783,96.41944 a 0.74629639,0.74629639 0 0 1 0.782898,0.47284 l 3.137276,8.14524 a 40.749877,40.749877 0 0 1 1.69602,5.55263 l 2.617412,11.43341 a 1.1241316,1.1241316 0 0 1 -1.686202,1.24127 18.901008,18.901008 0 0 1 -8.229472,-15.06988 35.695213,35.695213 0 0 1 0.307474,-5.79345 l 0.72192,-5.34076 a 0.74629639,0.74629639 0 0 1 0.652674,-0.6413 z m 43.129667,6.63577 c -1.252201,4.2e-4 -2.622432,0.03 -4.050399,0.108 -5.711866,0.31214 -12.32914,1.44327 -15.883268,4.43953 -3.326442,2.8043 -6.454651,9.63802 -8.663554,15.73857 -0.991199,2.7375 -1.757473,5.18176 -2.324923,7.10499 2.13045,0.4028 4.483731,0.60447 7.08794,0.5731 l 30.28342,-0.36536 v -27.47636 c -1.16048,-0.0187 -2.64758,-0.0367 -3.1073,-0.0553 -0.9558,-0.0387 -2.089717,-0.0676 -3.341916,-0.0672 z"
       transform="matrix(1.0237328,0,0,0.97795766,-2.491729,5.0557198)" />
  </g>
</svg>
